<svg width="84" height="40" viewBox="0 0 84 40" fill="none" xmlns="http://www.w3.org/2000/svg">
<g clip-path="url(#clip0_1668_715)">
<path d="M48.8208 27.3674C48.4694 29.4975 47.227 31.6166 45.5593 32.9305C44.4239 33.8248 43.1511 34.259 41.7712 34.543C39.3007 35.051 36.53 34.0121 34.7098 32.3399C33.2791 31.0256 31.126 28.0532 31.126 28.0532L28.2055 31.7813C31.1462 37.0166 36.1969 40.8289 42.4378 39.6869C48.6788 38.5448 53.452 33.3194 53.7868 27.4545C54.03 23.1926 52.5117 18.825 48.9975 16.2758C44.0713 12.7037 37.591 12.3562 32.4799 15.6855C29.1207 17.8736 27.3199 21.6092 25.0969 24.858C25.0969 24.858 24.4515 25.7893 24.099 25.4905C23.5802 25.051 24.077 24.0293 24.3431 23.561C24.991 22.4203 25.8106 21.3924 26.471 20.2602L26.4047 20.1639C25.0547 18.2028 23.6839 16.2114 21.6592 14.8996C19.3213 13.3847 17.123 12.8677 14.0635 12.9498C11.8095 13.0102 9.79061 13.6079 7.802 14.6659L8.98699 6.49075C8.98699 6.49075 19.8906 6.35258 25.3239 6.3377L25.2586 0.000610352L3.3433 0.00209486L0.558516 21.5131L7.45825 21.8678C7.45825 21.8678 8.91431 19.7364 11.3149 19.2438C12.0583 19.0913 13.2974 19.0767 14.1006 19.2111C15.105 19.3792 16.3778 20.0774 16.9873 20.7946C17.857 21.8178 18.265 22.6295 18.6406 24.0842C18.8927 25.061 18.9162 27.5354 18.6821 28.4744C18.0939 30.834 17.0511 32.2996 15.3546 33.1508C14.4707 33.5944 13.3289 33.8537 12.0208 33.6879C9.33251 33.3471 8.01313 31.3551 6.87743 28.9832C6.87743 28.9832 1.61738 28.4574 0.0673452 28.2186C-0.652014 34.0203 4.51817 38.6992 9.52775 39.6043C15.5696 40.6961 21.1923 39.8401 25.6312 33.093C29.3637 28.0532 31.0398 22.9282 34.9747 19.835C36.8567 18.3557 38.4642 17.8255 40.7921 17.9162C42.2107 17.9716 42.66 18.0602 43.7672 18.5034C46.4507 19.5772 48.3545 21.9387 48.8288 24.7819C48.9869 25.7295 48.9849 26.3723 48.8208 27.3674Z" fill="#24FEEE"/>
<path d="M56.1426 37.6566V23.6869H64.8372V26.0988H59.1407V29.516H63.3382V31.7269H59.1407V37.6566H56.1426Z" fill="#FDFDFD"/>
<path d="M68.967 25.4939C69.9605 25.4939 70.7659 24.684 70.7659 23.6849C70.7659 22.6858 69.9605 21.8758 68.967 21.8758C67.9735 21.8758 67.1681 22.6858 67.1681 23.6849C67.1681 24.684 67.9735 25.4939 68.967 25.4939Z" fill="#FDFDFD"/>
<path d="M67.4674 37.6569V26.8027H70.4656V37.6569H67.4674Z" fill="#FDFDFD"/>
<path d="M73.096 37.6563L73.1959 26.9026H76.194V28.209C79.7916 25.4133 82.1183 26.9905 83.2832 28.8124C83.7649 29.5655 83.8952 30.4762 83.9071 31.3717L83.9892 37.6563H80.7912V31.5452C80.7912 31.2018 80.7203 30.8565 80.5331 30.5696C79.2468 28.5975 77.2444 29.3793 76.4306 30.5809C76.2445 30.8557 76.194 31.194 76.194 31.5264V37.6563H73.096Z" fill="#FDFDFD"/>
</g>
<defs>
<clipPath id="clip0_1668_715">
<rect width="84" height="40" fill="white"/>
</clipPath>
</defs>
</svg>
